<svg width="50" height="49" viewBox="0 0 50 49" fill="none" xmlns="http://www.w3.org/2000/svg">
<path d="M37.4981 30.7711C37.4981 33.4139 35.3623 35.5554 32.7282 35.5554C32.1765 35.5554 31.7264 35.1048 31.7264 34.5504V13.5427C31.7264 12.9884 32.1739 12.5378 32.7282 12.5378H36.4963C37.0481 12.5378 37.4981 12.9884 37.4981 13.5427V30.7711ZM26.8828 35.5554H23.1147C22.5629 35.5554 22.1129 35.1048 22.1129 34.5504V19.2965C22.1129 18.7421 22.5604 18.2916 23.1147 18.2916H26.8828C27.4345 18.2916 27.8846 18.7421 27.8846 19.2965V34.5504C27.8846 35.1048 27.4345 35.5554 26.8828 35.5554ZM17.2667 35.5554H13.4986C12.9469 35.5554 12.4968 35.1048 12.4968 34.5504V16.4386C12.4968 15.8842 12.9443 15.4337 13.4986 15.4337H17.2667C17.8185 15.4337 18.266 15.8842 18.266 16.4386V34.5504C18.2685 35.1048 17.821 35.5554 17.2667 35.5554ZM31.729 0H18.2685C8.17952 0 0 8.20664 0 18.3295V47.0933C0 47.6477 0.447496 48.0983 1.00178 48.0983H31.7315C41.8205 48.0983 50 39.8916 50 29.7687V18.3295C49.9975 8.20664 41.8205 0 31.729 0Z" fill="#2F2F33"/>
</svg>
