<svg width="258" height="24" viewBox="0 0 258 24" fill="none" xmlns="http://www.w3.org/2000/svg">
<path d="M18.7578 15.356C18.7578 16.6755 17.6888 17.7439 16.3715 17.7439C16.0943 17.7439 15.8703 17.5192 15.8703 17.2439V6.76054C15.8703 6.48298 16.0943 6.26049 16.3715 6.26049H18.2566C18.5338 6.26049 18.7578 6.48518 18.7578 6.76054V15.356ZM13.4485 17.7439H11.5634C11.2862 17.7439 11.0622 17.5192 11.0622 17.2439V9.63084C11.0622 9.35328 11.2862 9.13079 11.5634 9.13079H13.4485C13.7257 9.13079 13.9497 9.35548 13.9497 9.63084V17.2439C13.9475 17.5192 13.7235 17.7439 13.4485 17.7439ZM8.63815 17.7439H6.75306C6.47584 17.7439 6.25184 17.5192 6.25184 17.2439V8.2034C6.25184 7.92584 6.47584 7.70335 6.75306 7.70335H8.63815C8.91537 7.70335 9.13937 7.92804 9.13937 8.2034V17.2439C9.13937 17.5192 8.91537 17.7439 8.63815 17.7439ZM15.8725 0H9.13937C4.09175 0 0 4.09508 0 9.14621V23.5C0 23.7775 0.223996 24 0.501215 24H15.8725C20.9201 24 25.0119 19.9049 25.0119 14.8538V9.14621C25.0096 4.09508 20.9201 0 15.8725 0Z" fill="#EE2E5D"/>
<path d="M45.5531 7.68872H43.3863C43.0847 7.68872 42.9051 7.80988 42.8252 8.10947L41.3571 13.5902L39.6583 8.10947C39.5784 7.82971 39.3811 7.69092 39.1016 7.68872H37.5314C37.2542 7.69092 37.0546 7.82971 36.9748 8.10947L35.276 13.5902L33.8078 8.10947C33.728 7.80768 33.5462 7.68872 33.2468 7.68872H31.08C30.7185 7.68872 30.5588 7.909 30.6586 8.25044L33.5461 17.3041C33.626 17.5861 33.8478 17.7249 34.1272 17.7249H36.0522C36.3339 17.7249 36.5534 17.5839 36.6332 17.3041L38.3143 12.0305L39.9954 17.3041C40.0752 17.5861 40.297 17.7249 40.5764 17.7249H42.5015C42.7831 17.7249 43.0026 17.5839 43.0825 17.3041L45.97 8.25044C46.0742 7.91121 45.9146 7.68872 45.5531 7.68872Z" fill="#EE2E5D"/>
<path d="M56.2825 7.68796H54.2776C53.956 7.68796 53.7764 7.8686 53.7764 8.19021V8.63738C52.9536 7.87079 51.8958 7.4082 50.7425 7.4082C48.1256 7.4082 46.0054 9.77846 46.0054 12.7038C46.0054 15.6292 48.1256 17.9995 50.7425 17.9995C51.8958 17.9995 52.9536 17.5369 53.7764 16.7703V17.2175C53.7764 17.5391 53.956 17.7197 54.2776 17.7197H56.2825C56.6041 17.7197 56.7837 17.5391 56.7837 17.2175V8.19021C56.7837 7.8686 56.6041 7.68796 56.2825 7.68796ZM51.3746 15.1798C50.0462 15.1798 48.9705 14.0718 48.9705 12.7038C48.9705 11.3359 50.0462 10.2278 51.3746 10.2278C52.7008 10.2278 53.7786 11.3359 53.7786 12.7038C53.7786 14.0718 52.7008 15.1798 51.3746 15.1798Z" fill="#EE2E5D"/>
<path d="M91.4997 11.3623V17.2241C91.4997 17.5457 91.3201 17.7263 90.9985 17.7263H88.9937C88.6743 17.7263 88.4924 17.5457 88.4924 17.2241V11.6222C88.4924 10.6177 87.9114 10.1772 87.1485 10.1772C86.2458 10.1772 85.6848 10.6794 85.6848 11.8646V17.2241C85.6848 17.5457 85.5051 17.7263 85.1836 17.7263H83.1787C82.8571 17.7263 82.6775 17.5457 82.6775 17.2241V8.19022C82.6775 7.8686 82.8593 7.68796 83.1787 7.68796H85.1836C85.5051 7.68796 85.6848 7.8686 85.6848 8.19022V8.60435C86.1572 7.90605 87.011 7.40601 88.2929 7.40601C90.1558 7.40821 91.4997 8.85327 91.4997 11.3623Z" fill="#EE2E5D"/>
<path d="M76.5968 7.4082C73.4276 7.4082 71.2209 9.71679 71.2209 12.7083C71.2209 15.6997 73.3455 18.0083 76.6766 18.0083C78.7214 18.0083 80.367 17.1051 81.1499 15.3583C81.3117 15.0367 81.1099 14.8164 80.7484 14.8164H78.8234C78.5617 14.8164 78.402 14.9155 78.2024 15.0763C77.8409 15.3781 77.2798 15.5786 76.7187 15.5786C75.6742 15.5786 74.7383 15.1049 74.3724 13.9132H81.07C81.3716 13.9132 81.5712 13.7722 81.6111 13.4528C81.6311 13.2127 81.6511 12.9704 81.6511 12.7104C81.6511 9.67712 79.5264 7.4082 76.5968 7.4082ZM74.3591 11.6244C74.6695 10.6243 75.4502 10.0781 76.5768 10.0781C77.4617 10.0781 78.3466 10.4812 78.6571 11.6244H74.3591Z" fill="#EE2E5D"/>
<path d="M70.0988 7.52704C70.4404 7.46757 70.62 7.68785 70.62 8.00947V10.3775C70.62 10.6991 70.4803 10.86 70.2186 10.86C69.0942 10.8203 68.0119 11.382 68.0119 12.9879V17.224C68.0119 17.5456 67.8323 17.7262 67.5107 17.7262H65.5059C65.1843 17.7262 65.0046 17.5456 65.0046 17.224V8.1901C65.0046 7.86849 65.1843 7.68785 65.5059 7.68785H67.5107C67.8323 7.68785 68.0119 7.86849 68.0119 8.1901V9.2761C68.3135 8.2672 69.103 7.67684 70.0988 7.52704Z" fill="#EE2E5D"/>
<path d="M63.1813 7.52704C63.5229 7.46757 63.7025 7.68785 63.7025 8.00947V10.3775C63.7025 10.6991 63.5627 10.86 63.3011 10.86C62.1766 10.8203 61.0944 11.382 61.0944 12.9879V17.224C61.0944 17.5456 60.9148 17.7262 60.5932 17.7262H58.5883C58.2667 17.7262 58.0872 17.5456 58.0872 17.224V8.1901C58.0872 7.86849 58.2667 7.68785 58.5883 7.68785H60.5932C60.9148 7.68785 61.0944 7.86849 61.0944 8.1901V9.2761C61.3938 8.2672 62.1833 7.67684 63.1813 7.52704Z" fill="#EE2E5D"/>
<path d="M99.4998 19.3499V5.57395H103.805C104.505 5.57395 105.149 5.64395 105.737 5.78395C106.339 5.90995 106.85 6.12695 107.27 6.43495C107.704 6.74295 108.04 7.14195 108.278 7.63195C108.516 8.12195 108.635 8.72395 108.635 9.43795C108.635 10.5159 108.355 11.3769 107.795 12.0209C107.235 12.6649 106.479 13.1059 105.527 13.3439L109.034 19.3499H107.06L103.742 13.5329H101.243V19.3499H99.4998ZM101.243 12.1049H103.553C104.631 12.1049 105.457 11.8879 106.031 11.4539C106.605 11.0059 106.892 10.3339 106.892 9.43795C106.892 8.52795 106.605 7.89095 106.031 7.52695C105.457 7.16295 104.631 6.98095 103.553 6.98095H101.243V12.1049Z" fill="#EE2E5D"/>
<path d="M112.928 19.6019C112.074 19.6019 111.36 19.3499 110.786 18.8459C110.226 18.3419 109.946 17.6279 109.946 16.7039C109.946 15.584 110.443 14.7299 111.437 14.1419C112.431 13.5399 114.02 13.1199 116.204 12.8819C116.204 12.5599 116.169 12.2449 116.099 11.9369C116.043 11.6289 115.938 11.3559 115.784 11.1179C115.63 10.8799 115.413 10.6909 115.133 10.5509C114.867 10.3969 114.524 10.3199 114.104 10.3199C113.516 10.3199 112.963 10.4319 112.445 10.6559C111.927 10.8799 111.465 11.1319 111.059 11.4119L110.387 10.2149C110.863 9.90695 111.444 9.61295 112.13 9.33295C112.816 9.03895 113.572 8.89195 114.398 8.89195C115.644 8.89195 116.547 9.27695 117.107 10.0469C117.667 10.8029 117.947 11.8179 117.947 13.0919V19.3499H116.519L116.372 18.1319H116.309C115.819 18.5379 115.294 18.8879 114.734 19.1819C114.174 19.4619 113.572 19.6019 112.928 19.6019ZM113.432 18.2159C113.922 18.2159 114.384 18.1039 114.818 17.8799C115.252 17.6419 115.714 17.2989 116.204 16.8509V14.0159C115.35 14.1279 114.629 14.2609 114.041 14.4149C113.467 14.5689 112.998 14.7509 112.634 14.9609C112.284 15.1709 112.025 15.4159 111.857 15.6959C111.703 15.9619 111.626 16.2559 111.626 16.5779C111.626 17.1659 111.801 17.5859 112.151 17.8379C112.501 18.0899 112.928 18.2159 113.432 18.2159Z" fill="#EE2E5D"/>
<path d="M124.014 19.6019C122.726 19.6019 121.697 19.1399 120.927 18.2159C120.171 17.2919 119.793 15.9759 119.793 14.2679C119.793 13.4419 119.912 12.6999 120.15 12.0419C120.402 11.3699 120.731 10.8029 121.137 10.3409C121.543 9.87895 122.012 9.52195 122.544 9.26995C123.076 9.01795 123.636 8.89195 124.224 8.89195C124.812 8.89195 125.323 8.99695 125.757 9.20695C126.191 9.41695 126.632 9.70395 127.08 10.0679L126.996 8.32495V4.39795H128.739V19.3499H127.311L127.164 18.1529H127.101C126.695 18.5449 126.226 18.8879 125.694 19.1819C125.176 19.4619 124.616 19.6019 124.014 19.6019ZM124.392 18.1529C124.868 18.1529 125.316 18.0409 125.736 17.8169C126.156 17.5789 126.576 17.2219 126.996 16.7459V11.4119C126.562 11.0199 126.142 10.7469 125.736 10.5929C125.344 10.4249 124.938 10.3409 124.518 10.3409C124.112 10.3409 123.727 10.4389 123.363 10.6349C123.013 10.8169 122.705 11.0829 122.439 11.4329C122.173 11.7689 121.963 12.1749 121.809 12.6509C121.655 13.1269 121.578 13.6589 121.578 14.2469C121.578 15.4789 121.823 16.4379 122.313 17.1239C122.803 17.8099 123.496 18.1529 124.392 18.1529Z" fill="#EE2E5D"/>
<path d="M133.898 19.6019C133.044 19.6019 132.33 19.3499 131.756 18.8459C131.196 18.3419 130.916 17.6279 130.916 16.7039C130.916 15.584 131.413 14.7299 132.407 14.1419C133.401 13.5399 134.99 13.1199 137.174 12.8819C137.174 12.5599 137.139 12.2449 137.069 11.9369C137.013 11.6289 136.908 11.3559 136.754 11.1179C136.6 10.8799 136.383 10.6909 136.103 10.5509C135.837 10.3969 135.494 10.3199 135.074 10.3199C134.486 10.3199 133.933 10.4319 133.415 10.6559C132.897 10.8799 132.435 11.1319 132.029 11.4119L131.357 10.2149C131.833 9.90695 132.414 9.61295 133.1 9.33295C133.786 9.03895 134.542 8.89195 135.368 8.89195C136.614 8.89195 137.517 9.27695 138.077 10.0469C138.637 10.8029 138.917 11.8179 138.917 13.0919V19.3499H137.489L137.342 18.1319H137.279C136.789 18.5379 136.264 18.8879 135.704 19.1819C135.144 19.4619 134.542 19.6019 133.898 19.6019ZM134.402 18.2159C134.892 18.2159 135.354 18.1039 135.788 17.8799C136.222 17.6419 136.684 17.2989 137.174 16.8509V14.0159C136.32 14.1279 135.599 14.2609 135.011 14.4149C134.437 14.5689 133.968 14.7509 133.604 14.9609C133.254 15.1709 132.995 15.4159 132.827 15.6959C132.673 15.9619 132.596 16.2559 132.596 16.5779C132.596 17.1659 132.771 17.5859 133.121 17.8379C133.471 18.0899 133.898 18.2159 134.402 18.2159Z" fill="#EE2E5D"/>
<path d="M141.498 19.3499V9.14395H142.926L143.073 10.9919H143.136C143.486 10.3479 143.906 9.83695 144.396 9.45895C144.9 9.08095 145.446 8.89195 146.034 8.89195C146.44 8.89195 146.804 8.96195 147.126 9.10195L146.79 10.6139C146.622 10.5579 146.468 10.5159 146.328 10.4879C146.188 10.4599 146.013 10.4459 145.803 10.4459C145.369 10.4459 144.914 10.6209 144.438 10.9709C143.976 11.3209 143.57 11.9299 143.22 12.7979V19.3499H141.498Z" fill="#EE2E5D"/>
<path d="M155.209 19.6019C153.921 19.6019 152.892 19.1399 152.122 18.2159C151.366 17.2919 150.988 15.9759 150.988 14.2679C150.988 13.4419 151.107 12.6999 151.345 12.0419C151.597 11.3699 151.926 10.8029 152.332 10.3409C152.738 9.87895 153.207 9.52195 153.739 9.26995C154.271 9.01795 154.831 8.89195 155.419 8.89195C156.007 8.89195 156.518 8.99695 156.952 9.20695C157.386 9.41695 157.827 9.70395 158.275 10.0679L158.191 8.32495V4.39795H159.934V19.3499H158.506L158.359 18.1529H158.296C157.89 18.5449 157.421 18.8879 156.889 19.1819C156.371 19.4619 155.811 19.6019 155.209 19.6019ZM155.587 18.1529C156.063 18.1529 156.511 18.0409 156.931 17.8169C157.351 17.5789 157.771 17.2219 158.191 16.7459V11.4119C157.757 11.0199 157.337 10.7469 156.931 10.5929C156.539 10.4249 156.133 10.3409 155.713 10.3409C155.307 10.3409 154.922 10.4389 154.558 10.6349C154.208 10.8169 153.9 11.0829 153.634 11.4329C153.368 11.7689 153.158 12.1749 153.004 12.6509C152.85 13.1269 152.773 13.6589 152.773 14.2469C152.773 15.4789 153.018 16.4379 153.508 17.1239C153.998 17.8099 154.691 18.1529 155.587 18.1529Z" fill="#EE2E5D"/>
<path d="M166.71 19.6019C166.08 19.6019 165.478 19.4829 164.904 19.2449C164.344 19.0069 163.847 18.6639 163.413 18.2159C162.979 17.7539 162.629 17.1939 162.363 16.5359C162.111 15.8639 161.985 15.1079 161.985 14.2679C161.985 13.4139 162.111 12.6579 162.363 11.9999C162.629 11.3279 162.979 10.7609 163.413 10.2989C163.847 9.83695 164.344 9.48695 164.904 9.24895C165.478 9.01095 166.08 8.89195 166.71 8.89195C167.34 8.89195 167.935 9.01095 168.495 9.24895C169.069 9.48695 169.573 9.83695 170.007 10.2989C170.441 10.7609 170.784 11.3279 171.036 11.9999C171.302 12.6579 171.435 13.4139 171.435 14.2679C171.435 15.1079 171.302 15.8639 171.036 16.5359C170.784 17.1939 170.441 17.7539 170.007 18.2159C169.573 18.6639 169.069 19.0069 168.495 19.2449C167.935 19.4829 167.34 19.6019 166.71 19.6019ZM166.71 18.1739C167.144 18.1739 167.543 18.0829 167.907 17.9009C168.271 17.7049 168.579 17.4389 168.831 17.1029C169.097 16.7529 169.3 16.3399 169.44 15.8639C169.58 15.3879 169.65 14.8559 169.65 14.2679C169.65 13.6799 169.58 13.1479 169.44 12.6719C169.3 12.1819 169.097 11.7619 168.831 11.4119C168.579 11.0619 168.271 10.7959 167.907 10.6139C167.543 10.4179 167.144 10.3199 166.71 10.3199C166.276 10.3199 165.877 10.4179 165.513 10.6139C165.149 10.7959 164.834 11.0619 164.568 11.4119C164.316 11.7619 164.12 12.1819 163.98 12.6719C163.84 13.1479 163.77 13.6799 163.77 14.2679C163.77 14.8559 163.84 15.3879 163.98 15.8639C164.12 16.3399 164.316 16.7529 164.568 17.1029C164.834 17.4389 165.149 17.7049 165.513 17.9009C165.877 18.0829 166.276 18.1739 166.71 18.1739Z" fill="#EE2E5D"/>
<path d="M177.235 19.3499V5.57395H178.978V19.3499H177.235Z" fill="#EE2E5D"/>
<path d="M181.954 19.3499V9.14395H183.382L183.529 10.6139H183.592C184.082 10.1239 184.593 9.71795 185.125 9.39595C185.671 9.05995 186.301 8.89195 187.015 8.89195C188.093 8.89195 188.877 9.22795 189.367 9.89995C189.871 10.5719 190.123 11.5659 190.123 12.8819V19.3499H188.401V13.1129C188.401 12.1469 188.247 11.4539 187.939 11.0339C187.631 10.5999 187.141 10.3829 186.469 10.3829C185.937 10.3829 185.468 10.5159 185.062 10.7819C184.656 11.0479 184.194 11.4399 183.676 11.9579V19.3499H181.954Z" fill="#EE2E5D"/>
<path d="M195.013 19.3499L191.338 9.14395H193.123L195.055 14.9399C195.209 15.4439 195.363 15.9479 195.517 16.452C195.685 16.9559 195.846 17.4529 196 17.9429H196.084C196.238 17.4529 196.392 16.9559 196.546 16.452C196.7 15.9479 196.854 15.4439 197.008 14.9399L198.94 9.14395H200.641L197.029 19.3499H195.013Z" fill="#EE2E5D"/>
<path d="M206.036 19.6019C205.35 19.6019 204.706 19.4829 204.104 19.2449C203.516 18.9929 202.998 18.6429 202.55 18.1949C202.116 17.7329 201.773 17.1729 201.521 16.5149C201.269 15.8569 201.143 15.1079 201.143 14.2679C201.143 13.4279 201.269 12.6789 201.521 12.0209C201.787 11.3489 202.13 10.7819 202.55 10.3199C202.984 9.85795 203.474 9.50795 204.02 9.26995C204.566 9.01795 205.133 8.89195 205.721 8.89195C206.365 8.89195 206.939 9.00395 207.443 9.22795C207.961 9.45195 208.388 9.77395 208.724 10.1939C209.074 10.6139 209.34 11.1179 209.522 11.7059C209.704 12.2939 209.795 12.9519 209.795 13.6799C209.795 13.8619 209.788 14.0439 209.774 14.2259C209.774 14.3939 209.76 14.5409 209.732 14.6669H202.844C202.914 15.7589 203.25 16.6269 203.852 17.2709C204.468 17.9009 205.266 18.2159 206.246 18.2159C206.736 18.2159 207.184 18.146 207.59 18.0059C208.01 17.8519 208.409 17.6559 208.787 17.4179L209.396 18.5519C208.948 18.8319 208.451 19.077 207.905 19.287C207.359 19.497 206.736 19.6019 206.036 19.6019ZM202.823 13.4279H208.283C208.283 12.3919 208.059 11.6079 207.611 11.0759C207.177 10.5299 206.561 10.2569 205.763 10.2569C205.399 10.2569 205.049 10.3269 204.713 10.4669C204.391 10.6069 204.097 10.8169 203.831 11.0969C203.565 11.3629 203.341 11.6919 203.159 12.0839C202.991 12.4759 202.879 12.9239 202.823 13.4279Z" fill="#EE2E5D"/>
<path d="M214.354 19.6019C213.626 19.6019 212.933 19.4689 212.275 19.2029C211.617 18.9369 211.043 18.6009 210.553 18.1949L211.414 17.0399C211.862 17.4039 212.317 17.6979 212.779 17.9219C213.255 18.1459 213.801 18.2579 214.417 18.2579C215.089 18.2579 215.593 18.1039 215.929 17.7959C216.265 17.4879 216.433 17.1099 216.433 16.6619C216.433 16.3959 216.363 16.1649 216.223 15.9689C216.083 15.7729 215.901 15.6049 215.677 15.4649C215.467 15.3109 215.222 15.1779 214.942 15.0659C214.662 14.9539 214.382 14.8419 214.102 14.7299C213.738 14.6039 213.374 14.4639 213.01 14.3099C212.646 14.1419 212.317 13.9459 212.023 13.7219C211.743 13.4839 211.512 13.2109 211.33 12.9029C211.148 12.5949 211.057 12.2239 211.057 11.7899C211.057 11.3839 211.134 11.0059 211.288 10.6559C211.456 10.2919 211.687 9.98395 211.981 9.73195C212.289 9.46595 212.66 9.26295 213.094 9.12295C213.528 8.96895 214.018 8.89195 214.564 8.89195C215.208 8.89195 215.796 9.00395 216.328 9.22795C216.874 9.45195 217.343 9.72495 217.735 10.0469L216.916 11.1389C216.566 10.8729 216.202 10.6559 215.824 10.4879C215.446 10.3199 215.033 10.2359 214.585 10.2359C213.941 10.2359 213.465 10.3829 213.157 10.6769C212.863 10.9709 212.716 11.3139 212.716 11.7059C212.716 11.9439 212.779 12.1539 212.905 12.3359C213.031 12.5039 213.199 12.6579 213.409 12.7979C213.619 12.9239 213.857 13.0429 214.123 13.1549C214.403 13.2529 214.69 13.3579 214.984 13.4699C215.348 13.6099 215.712 13.7569 216.076 13.9109C216.454 14.0649 216.79 14.2609 217.084 14.4989C217.378 14.7229 217.616 15.0029 217.798 15.3389C217.994 15.6749 218.092 16.0809 218.092 16.5569C218.092 16.9769 218.008 17.3689 217.84 17.733C217.686 18.0969 217.448 18.419 217.126 18.6989C216.818 18.9789 216.426 19.1959 215.95 19.3499C215.488 19.518 214.956 19.6019 214.354 19.6019Z" fill="#EE2E5D"/>
<path d="M222.657 19.6019C222.111 19.6019 221.649 19.518 221.271 19.3499C220.907 19.1819 220.606 18.9509 220.368 18.6569C220.144 18.363 219.983 18.0059 219.885 17.5859C219.787 17.1659 219.738 16.7039 219.738 16.1999V10.5509H218.226V9.24895L219.822 9.14395L220.032 6.28795H221.481V9.14395H224.232V10.5509H221.481V16.2209C221.481 16.8509 221.593 17.341 221.817 17.691C222.055 18.0269 222.468 18.1949 223.056 18.1949C223.238 18.1949 223.434 18.1669 223.644 18.1109C223.854 18.0549 224.043 17.9919 224.211 17.9219L224.547 19.2239C224.267 19.3219 223.959 19.4059 223.623 19.4759C223.301 19.5599 222.979 19.6019 222.657 19.6019Z" fill="#EE2E5D"/>
<path d="M225.91 19.3499V9.14395H227.632V19.3499H225.91ZM226.792 7.04395C226.456 7.04395 226.169 6.93895 225.931 6.72895C225.707 6.51895 225.595 6.25295 225.595 5.93095C225.595 5.59495 225.707 5.32895 225.931 5.13295C226.169 4.92295 226.456 4.81795 226.792 4.81795C227.128 4.81795 227.408 4.92295 227.632 5.13295C227.87 5.32895 227.989 5.59495 227.989 5.93095C227.989 6.25295 227.87 6.51895 227.632 6.72895C227.408 6.93895 227.128 7.04395 226.792 7.04395Z" fill="#EE2E5D"/>
<path d="M233.934 19.6019C232.646 19.6019 231.617 19.1399 230.847 18.2159C230.091 17.2919 229.713 15.9759 229.713 14.2679C229.713 13.4419 229.832 12.6999 230.07 12.0419C230.322 11.3699 230.651 10.8029 231.057 10.3409C231.463 9.87895 231.932 9.52195 232.464 9.26995C232.996 9.01795 233.556 8.89195 234.144 8.89195C234.732 8.89195 235.243 8.99695 235.677 9.20695C236.111 9.41695 236.552 9.70395 237 10.0679L236.916 8.32495V4.39795H238.659V19.3499H237.231L237.084 18.1529H237.021C236.615 18.5449 236.146 18.8879 235.614 19.1819C235.096 19.4619 234.536 19.6019 233.934 19.6019ZM234.312 18.1529C234.788 18.1529 235.236 18.0409 235.656 17.8169C236.076 17.5789 236.496 17.2219 236.916 16.7459V11.4119C236.482 11.0199 236.062 10.7469 235.656 10.5929C235.264 10.4249 234.858 10.3409 234.438 10.3409C234.032 10.3409 233.647 10.4389 233.283 10.6349C232.933 10.8169 232.625 11.0829 232.359 11.4329C232.093 11.7689 231.883 12.1749 231.729 12.6509C231.575 13.1269 231.498 13.6589 231.498 14.2469C231.498 15.4789 231.743 16.4379 232.233 17.1239C232.723 17.8099 233.416 18.1529 234.312 18.1529Z" fill="#EE2E5D"/>
<path d="M245.435 19.6019C244.805 19.6019 244.203 19.4829 243.63 19.2449C243.07 19.0069 242.572 18.6639 242.138 18.2159C241.704 17.7539 241.354 17.1939 241.089 16.5359C240.837 15.8639 240.71 15.1079 240.71 14.2679C240.71 13.4139 240.837 12.6579 241.089 11.9999C241.354 11.3279 241.704 10.7609 242.138 10.2989C242.572 9.83695 243.07 9.48695 243.63 9.24895C244.203 9.01095 244.805 8.89195 245.435 8.89195C246.065 8.89195 246.66 9.01095 247.22 9.24895C247.794 9.48695 248.298 9.83695 248.732 10.2989C249.167 10.7609 249.509 11.3279 249.761 11.9999C250.027 12.6579 250.16 13.4139 250.16 14.2679C250.16 15.1079 250.027 15.8639 249.761 16.5359C249.509 17.1939 249.167 17.7539 248.732 18.2159C248.298 18.6639 247.794 19.0069 247.22 19.2449C246.66 19.4829 246.065 19.6019 245.435 19.6019ZM245.435 18.1739C245.869 18.1739 246.268 18.0829 246.632 17.9009C246.996 17.7049 247.304 17.4389 247.556 17.1029C247.822 16.7529 248.025 16.3399 248.165 15.8639C248.305 15.3879 248.376 14.8559 248.376 14.2679C248.376 13.6799 248.305 13.1479 248.165 12.6719C248.025 12.1819 247.822 11.7619 247.556 11.4119C247.304 11.0619 246.996 10.7959 246.632 10.6139C246.268 10.4179 245.869 10.3199 245.435 10.3199C245.001 10.3199 244.602 10.4179 244.238 10.6139C243.874 10.7959 243.559 11.0619 243.294 11.4119C243.042 11.7619 242.845 12.1819 242.705 12.6719C242.565 13.1479 242.495 13.6799 242.495 14.2679C242.495 14.8559 242.565 15.3879 242.705 15.8639C242.845 16.3399 243.042 16.7529 243.294 17.1029C243.559 17.4389 243.874 17.7049 244.238 17.9009C244.602 18.0829 245.001 18.1739 245.435 18.1739Z" fill="#EE2E5D"/>
<path d="M252.218 19.3499V9.14395H253.646L253.793 10.9919H253.856C254.206 10.3479 254.626 9.83695 255.116 9.45895C255.62 9.08095 256.166 8.89195 256.754 8.89195C257.16 8.89195 257.524 8.96195 257.846 9.10195L257.51 10.6139C257.342 10.5579 257.188 10.5159 257.048 10.4879C256.908 10.4599 256.733 10.4459 256.523 10.4459C256.089 10.4459 255.634 10.6209 255.158 10.9709C254.696 11.3209 254.29 11.9299 253.94 12.7979V19.3499H252.218Z" fill="#EE2E5D"/>
</svg>
