<svg width="165" height="109" viewBox="0 0 165 109" fill="none" xmlns="http://www.w3.org/2000/svg">
<path d="M99.4492 41.691C99.4492 45.2715 96.5534 48.173 92.982 48.173C92.2339 48.173 91.6237 47.5625 91.6237 46.8114V18.3487C91.6237 17.5976 92.2305 16.9871 92.982 16.9871H98.0909C98.839 16.9871 99.4492 17.5976 99.4492 18.3487V41.691ZM85.0565 48.173H79.9476C79.1995 48.173 78.5894 47.5625 78.5894 46.8114V26.1443C78.5894 25.3932 79.1961 24.7827 79.9476 24.7827H85.0565C85.8046 24.7827 86.4148 25.3932 86.4148 26.1443V46.8114C86.4148 47.5625 85.8046 48.173 85.0565 48.173ZM72.0188 48.173H66.9098C66.1617 48.173 65.5516 47.5625 65.5516 46.8114V22.2722C65.5516 21.5211 66.1583 20.9106 66.9098 20.9106H72.0188C72.7668 20.9106 73.3736 21.5211 73.3736 22.2722V46.8114C73.377 47.5625 72.7703 48.173 72.0188 48.173ZM91.6272 0H73.377C59.698 0 48.6079 11.119 48.6079 24.8342V63.8054C48.6079 64.5565 49.2146 65.167 49.9662 65.167H91.6306C105.31 65.167 116.4 54.048 116.4 40.3328V24.8342C116.396 11.119 105.31 0 91.6272 0Z" fill="white"/>
<path d="M40.4585 80.2698H34.5877C33.7707 80.2698 33.2812 80.5956 33.064 81.4153L29.0823 96.2966L24.4732 81.4153C24.2561 80.6573 23.7183 80.2801 22.9668 80.2732V80.2698H18.7128V80.2732C17.9612 80.2801 17.4235 80.6573 17.2063 81.4153L12.5972 96.2966L8.61551 81.4153C8.39833 80.599 7.90881 80.2698 7.09179 80.2698H1.22098C0.241936 80.2698 -0.192427 80.87 0.079912 81.796L7.90881 106.376C8.12599 107.138 8.72583 107.522 9.48424 107.522H14.7035C15.4654 107.522 16.0618 107.141 16.2789 106.376L20.8363 92.061L25.3937 106.376C25.6109 107.138 26.2107 107.522 26.9691 107.522H32.1884C32.9502 107.522 33.5466 107.141 33.7638 106.376L41.5927 81.796C41.8719 80.87 41.4376 80.2698 40.4585 80.2698Z" fill="white"/>
<path d="M69.5436 80.2677H64.1107C63.2419 80.2677 62.7524 80.7582 62.7524 81.6293V82.8434C60.5254 80.7616 57.6572 79.5063 54.5305 79.5063C47.4394 79.5063 41.6892 85.9438 41.6892 93.8835C41.6892 101.823 47.4359 108.261 54.5305 108.261C57.6607 108.261 60.5254 107.005 62.7524 104.924V106.138C62.7524 107.009 63.2419 107.499 64.1107 107.499H69.5436C70.4124 107.499 70.9019 107.009 70.9019 106.138V81.6293C70.9019 80.7582 70.4124 80.2677 69.5436 80.2677ZM56.2404 100.606C52.6414 100.606 49.7249 97.5978 49.7249 93.8835C49.7249 90.1726 52.6414 87.1614 56.2404 87.1614C59.8394 87.1614 62.7558 90.1692 62.7558 93.8835C62.7524 97.5944 59.836 100.606 56.2404 100.606Z" fill="white"/>
<path d="M165 90.2412V106.155C165 107.026 164.511 107.516 163.642 107.516H158.205C157.337 107.516 156.847 107.026 156.847 106.155V90.9477C156.847 88.2211 155.272 87.0242 153.203 87.0242C150.759 87.0242 149.235 88.3858 149.235 91.6028V106.155C149.235 107.026 148.746 107.516 147.877 107.516H142.441C141.572 107.516 141.083 107.026 141.083 106.155V81.6293C141.083 80.7582 141.572 80.2677 142.441 80.2677H147.877C148.746 80.2677 149.235 80.7582 149.235 81.6293V82.7542C150.514 80.8611 152.831 79.5029 156.302 79.5029C161.36 79.5064 165 83.4299 165 90.2412Z" fill="white"/>
<path d="M124.607 79.5063C116.017 79.5063 110.039 85.7723 110.039 93.8938C110.039 102.015 115.8 108.281 124.825 108.281C130.368 108.281 134.829 105.829 136.946 101.086C137.38 100.215 136.839 99.6145 135.86 99.6145H130.64C129.934 99.6145 129.499 99.8854 128.955 100.321C127.976 101.137 126.455 101.683 124.932 101.683C122.098 101.683 119.561 100.396 118.571 97.1588H136.725C137.542 97.1588 138.083 96.7781 138.193 95.907C138.245 95.2519 138.3 94.5969 138.3 93.8904C138.304 85.666 132.543 79.5063 124.607 79.5063ZM118.54 90.9511C119.378 88.2348 121.495 86.7532 124.552 86.7532C126.948 86.7532 129.348 87.8473 130.189 90.9511H118.54Z" fill="white"/>
<path d="M106.996 79.8322C107.92 79.6675 108.409 80.2677 108.409 81.1423V87.5729C108.409 88.444 108.03 88.8796 107.324 88.8796C104.276 88.7699 101.342 90.296 101.342 94.6586V106.158C101.342 107.029 100.853 107.52 99.9842 107.52H94.5477C93.6755 107.52 93.1895 107.029 93.1895 106.158V81.6327C93.1895 80.7616 93.679 80.2711 94.5477 80.2711H99.9842C100.853 80.2711 101.342 80.7616 101.342 81.6327V84.5788C102.153 81.8419 104.293 80.2369 106.996 79.8322Z" fill="white"/>
<path d="M88.2414 79.8322C89.1653 79.6675 89.6548 80.2677 89.6548 81.1423V87.5729C89.6548 88.444 89.2756 88.8796 88.5689 88.8796C85.5214 88.7699 82.5878 90.296 82.5878 94.6586V106.158C82.5878 107.029 82.0982 107.52 81.2295 107.52H75.7931C74.9243 107.52 74.4348 107.029 74.4348 106.158V81.6327C74.4348 80.7616 74.9243 80.2711 75.7931 80.2711H81.2295C82.0982 80.2711 82.5878 80.7616 82.5878 81.6327V84.5788C83.3979 81.8419 85.5387 80.2369 88.2414 79.8322Z" fill="white"/>
</svg>
